<svg xmlns="http://www.w3.org/2000/svg" xmlns:xlink="http://www.w3.org/1999/xlink" data-stacking-context="true" aria-owns="w-full1" width="542" height="82.4453125" viewBox="464 366 542 82.4453125"><!-- Generated by dom-to-svg from https://www.element-to-svg.com/ --><style>@font-face { font-family: __Montserrat_337041; font-style: normal; font-weight: 100; font-display: swap; src: url("https://www.element-to-svg.com/_next/static/media/b1f344208eb4edfe-s.woff2") format("woff2"); unicode-range: U+460-52F, U+1C80-1C8A, U+20B4, U+2DE0-2DFF, U+A640-A69F, U+FE2E-FE2F; }
@font-face { font-family: __Montserrat_337041; font-style: normal; font-weight: 100; font-display: swap; src: url("https://www.element-to-svg.com/_next/static/media/48e2044251ef3125-s.woff2") format("woff2"); unicode-range: U+301, U+400-45F, U+490-491, U+4B0-4B1, U+2116; }
@font-face { font-family: __Montserrat_337041; font-style: normal; font-weight: 100; font-display: swap; src: url("https://www.element-to-svg.com/_next/static/media/bf24a9759715e608-s.woff2") format("woff2"); unicode-range: U+102-103, U+110-111, U+128-129, U+168-169, U+1A0-1A1, U+1AF-1B0, U+300-301, U+303-304, U+308-309, U+323, U+329, U+1EA0-1EF9, U+20AB; }
@font-face { font-family: __Montserrat_337041; font-style: normal; font-weight: 100; font-display: swap; src: url("https://www.element-to-svg.com/_next/static/media/1f173e5e25f3efee-s.woff2") format("woff2"); unicode-range: U+100-2BA, U+2BD-2C5, U+2C7-2CC, U+2CE-2D7, U+2DD-2FF, U+304, U+308, U+329, U+1D00-1DBF, U+1E00-1E9F, U+1EF2-1EFF, U+2020, U+20A0-20AB, U+20AD-20C0, U+2113, U+2C60-2C7F, U+A720-A7FF; }
@font-face { font-family: __Montserrat_337041; font-style: normal; font-weight: 100; font-display: swap; src: url("https://www.element-to-svg.com/_next/static/media/904be59b21bd51cb-s.p.woff2") format("woff2"); unicode-range: U+0-FF, U+131, U+152-153, U+2BB-2BC, U+2C6, U+2DA, U+2DC, U+304, U+308, U+329, U+2000-206F, U+20AC, U+2122, U+2191, U+2193, U+2212, U+2215, U+FEFF, U+FFFD; }
@font-face { font-family: __Montserrat_337041; font-style: normal; font-weight: 200; font-display: swap; src: url("https://www.element-to-svg.com/_next/static/media/b1f344208eb4edfe-s.woff2") format("woff2"); unicode-range: U+460-52F, U+1C80-1C8A, U+20B4, U+2DE0-2DFF, U+A640-A69F, U+FE2E-FE2F; }
@font-face { font-family: __Montserrat_337041; font-style: normal; font-weight: 200; font-display: swap; src: url("https://www.element-to-svg.com/_next/static/media/48e2044251ef3125-s.woff2") format("woff2"); unicode-range: U+301, U+400-45F, U+490-491, U+4B0-4B1, U+2116; }
@font-face { font-family: __Montserrat_337041; font-style: normal; font-weight: 200; font-display: swap; src: url("https://www.element-to-svg.com/_next/static/media/bf24a9759715e608-s.woff2") format("woff2"); unicode-range: U+102-103, U+110-111, U+128-129, U+168-169, U+1A0-1A1, U+1AF-1B0, U+300-301, U+303-304, U+308-309, U+323, U+329, U+1EA0-1EF9, U+20AB; }
@font-face { font-family: __Montserrat_337041; font-style: normal; font-weight: 200; font-display: swap; src: url("https://www.element-to-svg.com/_next/static/media/1f173e5e25f3efee-s.woff2") format("woff2"); unicode-range: U+100-2BA, U+2BD-2C5, U+2C7-2CC, U+2CE-2D7, U+2DD-2FF, U+304, U+308, U+329, U+1D00-1DBF, U+1E00-1E9F, U+1EF2-1EFF, U+2020, U+20A0-20AB, U+20AD-20C0, U+2113, U+2C60-2C7F, U+A720-A7FF; }
@font-face { font-family: __Montserrat_337041; font-style: normal; font-weight: 200; font-display: swap; src: url("https://www.element-to-svg.com/_next/static/media/904be59b21bd51cb-s.p.woff2") format("woff2"); unicode-range: U+0-FF, U+131, U+152-153, U+2BB-2BC, U+2C6, U+2DA, U+2DC, U+304, U+308, U+329, U+2000-206F, U+20AC, U+2122, U+2191, U+2193, U+2212, U+2215, U+FEFF, U+FFFD; }
@font-face { font-family: __Montserrat_337041; font-style: normal; font-weight: 300; font-display: swap; src: url("https://www.element-to-svg.com/_next/static/media/b1f344208eb4edfe-s.woff2") format("woff2"); unicode-range: U+460-52F, U+1C80-1C8A, U+20B4, U+2DE0-2DFF, U+A640-A69F, U+FE2E-FE2F; }
@font-face { font-family: __Montserrat_337041; font-style: normal; font-weight: 300; font-display: swap; src: url("https://www.element-to-svg.com/_next/static/media/48e2044251ef3125-s.woff2") format("woff2"); unicode-range: U+301, U+400-45F, U+490-491, U+4B0-4B1, U+2116; }
@font-face { font-family: __Montserrat_337041; font-style: normal; font-weight: 300; font-display: swap; src: url("https://www.element-to-svg.com/_next/static/media/bf24a9759715e608-s.woff2") format("woff2"); unicode-range: U+102-103, U+110-111, U+128-129, U+168-169, U+1A0-1A1, U+1AF-1B0, U+300-301, U+303-304, U+308-309, U+323, U+329, U+1EA0-1EF9, U+20AB; }
@font-face { font-family: __Montserrat_337041; font-style: normal; font-weight: 300; font-display: swap; src: url("https://www.element-to-svg.com/_next/static/media/1f173e5e25f3efee-s.woff2") format("woff2"); unicode-range: U+100-2BA, U+2BD-2C5, U+2C7-2CC, U+2CE-2D7, U+2DD-2FF, U+304, U+308, U+329, U+1D00-1DBF, U+1E00-1E9F, U+1EF2-1EFF, U+2020, U+20A0-20AB, U+20AD-20C0, U+2113, U+2C60-2C7F, U+A720-A7FF; }
@font-face { font-family: __Montserrat_337041; font-style: normal; font-weight: 300; font-display: swap; src: url("https://www.element-to-svg.com/_next/static/media/904be59b21bd51cb-s.p.woff2") format("woff2"); unicode-range: U+0-FF, U+131, U+152-153, U+2BB-2BC, U+2C6, U+2DA, U+2DC, U+304, U+308, U+329, U+2000-206F, U+20AC, U+2122, U+2191, U+2193, U+2212, U+2215, U+FEFF, U+FFFD; }
@font-face { font-family: __Montserrat_337041; font-style: normal; font-weight: 400; font-display: swap; src: url("https://www.element-to-svg.com/_next/static/media/b1f344208eb4edfe-s.woff2") format("woff2"); unicode-range: U+460-52F, U+1C80-1C8A, U+20B4, U+2DE0-2DFF, U+A640-A69F, U+FE2E-FE2F; }
@font-face { font-family: __Montserrat_337041; font-style: normal; font-weight: 400; font-display: swap; src: url("https://www.element-to-svg.com/_next/static/media/48e2044251ef3125-s.woff2") format("woff2"); unicode-range: U+301, U+400-45F, U+490-491, U+4B0-4B1, U+2116; }
@font-face { font-family: __Montserrat_337041; font-style: normal; font-weight: 400; font-display: swap; src: url("https://www.element-to-svg.com/_next/static/media/bf24a9759715e608-s.woff2") format("woff2"); unicode-range: U+102-103, U+110-111, U+128-129, U+168-169, U+1A0-1A1, U+1AF-1B0, U+300-301, U+303-304, U+308-309, U+323, U+329, U+1EA0-1EF9, U+20AB; }
@font-face { font-family: __Montserrat_337041; font-style: normal; font-weight: 400; font-display: swap; src: url("https://www.element-to-svg.com/_next/static/media/1f173e5e25f3efee-s.woff2") format("woff2"); unicode-range: U+100-2BA, U+2BD-2C5, U+2C7-2CC, U+2CE-2D7, U+2DD-2FF, U+304, U+308, U+329, U+1D00-1DBF, U+1E00-1E9F, U+1EF2-1EFF, U+2020, U+20A0-20AB, U+20AD-20C0, U+2113, U+2C60-2C7F, U+A720-A7FF; }
@font-face { font-family: __Montserrat_337041; font-style: normal; font-weight: 400; font-display: swap; src: url("https://www.element-to-svg.com/_next/static/media/904be59b21bd51cb-s.p.woff2") format("woff2"); unicode-range: U+0-FF, U+131, U+152-153, U+2BB-2BC, U+2C6, U+2DA, U+2DC, U+304, U+308, U+329, U+2000-206F, U+20AC, U+2122, U+2191, U+2193, U+2212, U+2215, U+FEFF, U+FFFD; }
@font-face { font-family: __Montserrat_337041; font-style: normal; font-weight: 500; font-display: swap; src: url("https://www.element-to-svg.com/_next/static/media/b1f344208eb4edfe-s.woff2") format("woff2"); unicode-range: U+460-52F, U+1C80-1C8A, U+20B4, U+2DE0-2DFF, U+A640-A69F, U+FE2E-FE2F; }
@font-face { font-family: __Montserrat_337041; font-style: normal; font-weight: 500; font-display: swap; src: url("https://www.element-to-svg.com/_next/static/media/48e2044251ef3125-s.woff2") format("woff2"); unicode-range: U+301, U+400-45F, U+490-491, U+4B0-4B1, U+2116; }
@font-face { font-family: __Montserrat_337041; font-style: normal; font-weight: 500; font-display: swap; src: url("https://www.element-to-svg.com/_next/static/media/bf24a9759715e608-s.woff2") format("woff2"); unicode-range: U+102-103, U+110-111, U+128-129, U+168-169, U+1A0-1A1, U+1AF-1B0, U+300-301, U+303-304, U+308-309, U+323, U+329, U+1EA0-1EF9, U+20AB; }
@font-face { font-family: __Montserrat_337041; font-style: normal; font-weight: 500; font-display: swap; src: url("https://www.element-to-svg.com/_next/static/media/1f173e5e25f3efee-s.woff2") format("woff2"); unicode-range: U+100-2BA, U+2BD-2C5, U+2C7-2CC, U+2CE-2D7, U+2DD-2FF, U+304, U+308, U+329, U+1D00-1DBF, U+1E00-1E9F, U+1EF2-1EFF, U+2020, U+20A0-20AB, U+20AD-20C0, U+2113, U+2C60-2C7F, U+A720-A7FF; }
@font-face { font-family: __Montserrat_337041; font-style: normal; font-weight: 500; font-display: swap; src: url("https://www.element-to-svg.com/_next/static/media/904be59b21bd51cb-s.p.woff2") format("woff2"); unicode-range: U+0-FF, U+131, U+152-153, U+2BB-2BC, U+2C6, U+2DA, U+2DC, U+304, U+308, U+329, U+2000-206F, U+20AC, U+2122, U+2191, U+2193, U+2212, U+2215, U+FEFF, U+FFFD; }
@font-face { font-family: __Montserrat_337041; font-style: normal; font-weight: 600; font-display: swap; src: url("https://www.element-to-svg.com/_next/static/media/b1f344208eb4edfe-s.woff2") format("woff2"); unicode-range: U+460-52F, U+1C80-1C8A, U+20B4, U+2DE0-2DFF, U+A640-A69F, U+FE2E-FE2F; }
@font-face { font-family: __Montserrat_337041; font-style: normal; font-weight: 600; font-display: swap; src: url("https://www.element-to-svg.com/_next/static/media/48e2044251ef3125-s.woff2") format("woff2"); unicode-range: U+301, U+400-45F, U+490-491, U+4B0-4B1, U+2116; }
@font-face { font-family: __Montserrat_337041; font-style: normal; font-weight: 600; font-display: swap; src: url("https://www.element-to-svg.com/_next/static/media/bf24a9759715e608-s.woff2") format("woff2"); unicode-range: U+102-103, U+110-111, U+128-129, U+168-169, U+1A0-1A1, U+1AF-1B0, U+300-301, U+303-304, U+308-309, U+323, U+329, U+1EA0-1EF9, U+20AB; }
@font-face { font-family: __Montserrat_337041; font-style: normal; font-weight: 600; font-display: swap; src: url("https://www.element-to-svg.com/_next/static/media/1f173e5e25f3efee-s.woff2") format("woff2"); unicode-range: U+100-2BA, U+2BD-2C5, U+2C7-2CC, U+2CE-2D7, U+2DD-2FF, U+304, U+308, U+329, U+1D00-1DBF, U+1E00-1E9F, U+1EF2-1EFF, U+2020, U+20A0-20AB, U+20AD-20C0, U+2113, U+2C60-2C7F, U+A720-A7FF; }
@font-face { font-family: __Montserrat_337041; font-style: normal; font-weight: 600; font-display: swap; src: url("https://www.element-to-svg.com/_next/static/media/904be59b21bd51cb-s.p.woff2") format("woff2"); unicode-range: U+0-FF, U+131, U+152-153, U+2BB-2BC, U+2C6, U+2DA, U+2DC, U+304, U+308, U+329, U+2000-206F, U+20AC, U+2122, U+2191, U+2193, U+2212, U+2215, U+FEFF, U+FFFD; }
@font-face { font-family: __Montserrat_337041; font-style: normal; font-weight: 700; font-display: swap; src: url("https://www.element-to-svg.com/_next/static/media/b1f344208eb4edfe-s.woff2") format("woff2"); unicode-range: U+460-52F, U+1C80-1C8A, U+20B4, U+2DE0-2DFF, U+A640-A69F, U+FE2E-FE2F; }
@font-face { font-family: __Montserrat_337041; font-style: normal; font-weight: 700; font-display: swap; src: url("https://www.element-to-svg.com/_next/static/media/48e2044251ef3125-s.woff2") format("woff2"); unicode-range: U+301, U+400-45F, U+490-491, U+4B0-4B1, U+2116; }
@font-face { font-family: __Montserrat_337041; font-style: normal; font-weight: 700; font-display: swap; src: url("https://www.element-to-svg.com/_next/static/media/bf24a9759715e608-s.woff2") format("woff2"); unicode-range: U+102-103, U+110-111, U+128-129, U+168-169, U+1A0-1A1, U+1AF-1B0, U+300-301, U+303-304, U+308-309, U+323, U+329, U+1EA0-1EF9, U+20AB; }
@font-face { font-family: __Montserrat_337041; font-style: normal; font-weight: 700; font-display: swap; src: url("https://www.element-to-svg.com/_next/static/media/1f173e5e25f3efee-s.woff2") format("woff2"); unicode-range: U+100-2BA, U+2BD-2C5, U+2C7-2CC, U+2CE-2D7, U+2DD-2FF, U+304, U+308, U+329, U+1D00-1DBF, U+1E00-1E9F, U+1EF2-1EFF, U+2020, U+20A0-20AB, U+20AD-20C0, U+2113, U+2C60-2C7F, U+A720-A7FF; }
@font-face { font-family: __Montserrat_337041; font-style: normal; font-weight: 700; font-display: swap; src: url("https://www.element-to-svg.com/_next/static/media/904be59b21bd51cb-s.p.woff2") format("woff2"); unicode-range: U+0-FF, U+131, U+152-153, U+2BB-2BC, U+2C6, U+2DA, U+2DC, U+304, U+308, U+329, U+2000-206F, U+20AC, U+2122, U+2191, U+2193, U+2212, U+2215, U+FEFF, U+FFFD; }
@font-face { font-family: __Montserrat_337041; font-style: normal; font-weight: 800; font-display: swap; src: url("https://www.element-to-svg.com/_next/static/media/b1f344208eb4edfe-s.woff2") format("woff2"); unicode-range: U+460-52F, U+1C80-1C8A, U+20B4, U+2DE0-2DFF, U+A640-A69F, U+FE2E-FE2F; }
@font-face { font-family: __Montserrat_337041; font-style: normal; font-weight: 800; font-display: swap; src: url("https://www.element-to-svg.com/_next/static/media/48e2044251ef3125-s.woff2") format("woff2"); unicode-range: U+301, U+400-45F, U+490-491, U+4B0-4B1, U+2116; }
@font-face { font-family: __Montserrat_337041; font-style: normal; font-weight: 800; font-display: swap; src: url("https://www.element-to-svg.com/_next/static/media/bf24a9759715e608-s.woff2") format("woff2"); unicode-range: U+102-103, U+110-111, U+128-129, U+168-169, U+1A0-1A1, U+1AF-1B0, U+300-301, U+303-304, U+308-309, U+323, U+329, U+1EA0-1EF9, U+20AB; }
@font-face { font-family: __Montserrat_337041; font-style: normal; font-weight: 800; font-display: swap; src: url("https://www.element-to-svg.com/_next/static/media/1f173e5e25f3efee-s.woff2") format("woff2"); unicode-range: U+100-2BA, U+2BD-2C5, U+2C7-2CC, U+2CE-2D7, U+2DD-2FF, U+304, U+308, U+329, U+1D00-1DBF, U+1E00-1E9F, U+1EF2-1EFF, U+2020, U+20A0-20AB, U+20AD-20C0, U+2113, U+2C60-2C7F, U+A720-A7FF; }
@font-face { font-family: __Montserrat_337041; font-style: normal; font-weight: 800; font-display: swap; src: url("https://www.element-to-svg.com/_next/static/media/904be59b21bd51cb-s.p.woff2") format("woff2"); unicode-range: U+0-FF, U+131, U+152-153, U+2BB-2BC, U+2C6, U+2DA, U+2DC, U+304, U+308, U+329, U+2000-206F, U+20AC, U+2122, U+2191, U+2193, U+2212, U+2215, U+FEFF, U+FFFD; }
@font-face { font-family: __Montserrat_337041; font-style: normal; font-weight: 900; font-display: swap; src: url("https://www.element-to-svg.com/_next/static/media/b1f344208eb4edfe-s.woff2") format("woff2"); unicode-range: U+460-52F, U+1C80-1C8A, U+20B4, U+2DE0-2DFF, U+A640-A69F, U+FE2E-FE2F; }
@font-face { font-family: __Montserrat_337041; font-style: normal; font-weight: 900; font-display: swap; src: url("https://www.element-to-svg.com/_next/static/media/48e2044251ef3125-s.woff2") format("woff2"); unicode-range: U+301, U+400-45F, U+490-491, U+4B0-4B1, U+2116; }
@font-face { font-family: __Montserrat_337041; font-style: normal; font-weight: 900; font-display: swap; src: url("https://www.element-to-svg.com/_next/static/media/bf24a9759715e608-s.woff2") format("woff2"); unicode-range: U+102-103, U+110-111, U+128-129, U+168-169, U+1A0-1A1, U+1AF-1B0, U+300-301, U+303-304, U+308-309, U+323, U+329, U+1EA0-1EF9, U+20AB; }
@font-face { font-family: __Montserrat_337041; font-style: normal; font-weight: 900; font-display: swap; src: url("https://www.element-to-svg.com/_next/static/media/1f173e5e25f3efee-s.woff2") format("woff2"); unicode-range: U+100-2BA, U+2BD-2C5, U+2C7-2CC, U+2CE-2D7, U+2DD-2FF, U+304, U+308, U+329, U+1D00-1DBF, U+1E00-1E9F, U+1EF2-1EFF, U+2020, U+20A0-20AB, U+20AD-20C0, U+2113, U+2C60-2C7F, U+A720-A7FF; }
@font-face { font-family: __Montserrat_337041; font-style: normal; font-weight: 900; font-display: swap; src: url("https://www.element-to-svg.com/_next/static/media/904be59b21bd51cb-s.p.woff2") format("woff2"); unicode-range: U+0-FF, U+131, U+152-153, U+2BB-2BC, U+2C6, U+2DA, U+2DC, U+304, U+308, U+329, U+2000-206F, U+20AC, U+2122, U+2191, U+2193, U+2212, U+2215, U+FEFF, U+FFFD; }
@font-face { font-family: __Montserrat_Fallback_337041; src: local("Arial"); ascent-override: 85.79%; descent-override: 22.25%; line-gap-override: 0%; size-adjust: 112.83%; }
@font-face { font-family: __Sora_1822b0; font-style: normal; font-weight: 100; font-display: swap; src: url("https://www.element-to-svg.com/_next/static/media/1d4eaed977255102-s.woff2") format("woff2"); unicode-range: U+100-2BA, U+2BD-2C5, U+2C7-2CC, U+2CE-2D7, U+2DD-2FF, U+304, U+308, U+329, U+1D00-1DBF, U+1E00-1E9F, U+1EF2-1EFF, U+2020, U+20A0-20AB, U+20AD-20C0, U+2113, U+2C60-2C7F, U+A720-A7FF; }
@font-face { font-family: __Sora_1822b0; font-style: normal; font-weight: 100; font-display: swap; src: url("https://www.element-to-svg.com/_next/static/media/f3f7e95f2dbc4fe4-s.p.woff2") format("woff2"); unicode-range: U+0-FF, U+131, U+152-153, U+2BB-2BC, U+2C6, U+2DA, U+2DC, U+304, U+308, U+329, U+2000-206F, U+20AC, U+2122, U+2191, U+2193, U+2212, U+2215, U+FEFF, U+FFFD; }
@font-face { font-family: __Sora_1822b0; font-style: normal; font-weight: 200; font-display: swap; src: url("https://www.element-to-svg.com/_next/static/media/1d4eaed977255102-s.woff2") format("woff2"); unicode-range: U+100-2BA, U+2BD-2C5, U+2C7-2CC, U+2CE-2D7, U+2DD-2FF, U+304, U+308, U+329, U+1D00-1DBF, U+1E00-1E9F, U+1EF2-1EFF, U+2020, U+20A0-20AB, U+20AD-20C0, U+2113, U+2C60-2C7F, U+A720-A7FF; }
@font-face { font-family: __Sora_1822b0; font-style: normal; font-weight: 200; font-display: swap; src: url("https://www.element-to-svg.com/_next/static/media/f3f7e95f2dbc4fe4-s.p.woff2") format("woff2"); unicode-range: U+0-FF, U+131, U+152-153, U+2BB-2BC, U+2C6, U+2DA, U+2DC, U+304, U+308, U+329, U+2000-206F, U+20AC, U+2122, U+2191, U+2193, U+2212, U+2215, U+FEFF, U+FFFD; }
@font-face { font-family: __Sora_1822b0; font-style: normal; font-weight: 300; font-display: swap; src: url("https://www.element-to-svg.com/_next/static/media/1d4eaed977255102-s.woff2") format("woff2"); unicode-range: U+100-2BA, U+2BD-2C5, U+2C7-2CC, U+2CE-2D7, U+2DD-2FF, U+304, U+308, U+329, U+1D00-1DBF, U+1E00-1E9F, U+1EF2-1EFF, U+2020, U+20A0-20AB, U+20AD-20C0, U+2113, U+2C60-2C7F, U+A720-A7FF; }
@font-face { font-family: __Sora_1822b0; font-style: normal; font-weight: 300; font-display: swap; src: url("https://www.element-to-svg.com/_next/static/media/f3f7e95f2dbc4fe4-s.p.woff2") format("woff2"); unicode-range: U+0-FF, U+131, U+152-153, U+2BB-2BC, U+2C6, U+2DA, U+2DC, U+304, U+308, U+329, U+2000-206F, U+20AC, U+2122, U+2191, U+2193, U+2212, U+2215, U+FEFF, U+FFFD; }
@font-face { font-family: __Sora_1822b0; font-style: normal; font-weight: 400; font-display: swap; src: url("https://www.element-to-svg.com/_next/static/media/1d4eaed977255102-s.woff2") format("woff2"); unicode-range: U+100-2BA, U+2BD-2C5, U+2C7-2CC, U+2CE-2D7, U+2DD-2FF, U+304, U+308, U+329, U+1D00-1DBF, U+1E00-1E9F, U+1EF2-1EFF, U+2020, U+20A0-20AB, U+20AD-20C0, U+2113, U+2C60-2C7F, U+A720-A7FF; }
@font-face { font-family: __Sora_1822b0; font-style: normal; font-weight: 400; font-display: swap; src: url("https://www.element-to-svg.com/_next/static/media/f3f7e95f2dbc4fe4-s.p.woff2") format("woff2"); unicode-range: U+0-FF, U+131, U+152-153, U+2BB-2BC, U+2C6, U+2DA, U+2DC, U+304, U+308, U+329, U+2000-206F, U+20AC, U+2122, U+2191, U+2193, U+2212, U+2215, U+FEFF, U+FFFD; }
@font-face { font-family: __Sora_1822b0; font-style: normal; font-weight: 500; font-display: swap; src: url("https://www.element-to-svg.com/_next/static/media/1d4eaed977255102-s.woff2") format("woff2"); unicode-range: U+100-2BA, U+2BD-2C5, U+2C7-2CC, U+2CE-2D7, U+2DD-2FF, U+304, U+308, U+329, U+1D00-1DBF, U+1E00-1E9F, U+1EF2-1EFF, U+2020, U+20A0-20AB, U+20AD-20C0, U+2113, U+2C60-2C7F, U+A720-A7FF; }
@font-face { font-family: __Sora_1822b0; font-style: normal; font-weight: 500; font-display: swap; src: url("https://www.element-to-svg.com/_next/static/media/f3f7e95f2dbc4fe4-s.p.woff2") format("woff2"); unicode-range: U+0-FF, U+131, U+152-153, U+2BB-2BC, U+2C6, U+2DA, U+2DC, U+304, U+308, U+329, U+2000-206F, U+20AC, U+2122, U+2191, U+2193, U+2212, U+2215, U+FEFF, U+FFFD; }
@font-face { font-family: __Sora_1822b0; font-style: normal; font-weight: 600; font-display: swap; src: url("https://www.element-to-svg.com/_next/static/media/1d4eaed977255102-s.woff2") format("woff2"); unicode-range: U+100-2BA, U+2BD-2C5, U+2C7-2CC, U+2CE-2D7, U+2DD-2FF, U+304, U+308, U+329, U+1D00-1DBF, U+1E00-1E9F, U+1EF2-1EFF, U+2020, U+20A0-20AB, U+20AD-20C0, U+2113, U+2C60-2C7F, U+A720-A7FF; }
@font-face { font-family: __Sora_1822b0; font-style: normal; font-weight: 600; font-display: swap; src: url("https://www.element-to-svg.com/_next/static/media/f3f7e95f2dbc4fe4-s.p.woff2") format("woff2"); unicode-range: U+0-FF, U+131, U+152-153, U+2BB-2BC, U+2C6, U+2DA, U+2DC, U+304, U+308, U+329, U+2000-206F, U+20AC, U+2122, U+2191, U+2193, U+2212, U+2215, U+FEFF, U+FFFD; }
@font-face { font-family: __Sora_1822b0; font-style: normal; font-weight: 700; font-display: swap; src: url("https://www.element-to-svg.com/_next/static/media/1d4eaed977255102-s.woff2") format("woff2"); unicode-range: U+100-2BA, U+2BD-2C5, U+2C7-2CC, U+2CE-2D7, U+2DD-2FF, U+304, U+308, U+329, U+1D00-1DBF, U+1E00-1E9F, U+1EF2-1EFF, U+2020, U+20A0-20AB, U+20AD-20C0, U+2113, U+2C60-2C7F, U+A720-A7FF; }
@font-face { font-family: __Sora_1822b0; font-style: normal; font-weight: 700; font-display: swap; src: url("https://www.element-to-svg.com/_next/static/media/f3f7e95f2dbc4fe4-s.p.woff2") format("woff2"); unicode-range: U+0-FF, U+131, U+152-153, U+2BB-2BC, U+2C6, U+2DA, U+2DC, U+304, U+308, U+329, U+2000-206F, U+20AC, U+2122, U+2191, U+2193, U+2212, U+2215, U+FEFF, U+FFFD; }
@font-face { font-family: __Sora_1822b0; font-style: normal; font-weight: 800; font-display: swap; src: url("https://www.element-to-svg.com/_next/static/media/1d4eaed977255102-s.woff2") format("woff2"); unicode-range: U+100-2BA, U+2BD-2C5, U+2C7-2CC, U+2CE-2D7, U+2DD-2FF, U+304, U+308, U+329, U+1D00-1DBF, U+1E00-1E9F, U+1EF2-1EFF, U+2020, U+20A0-20AB, U+20AD-20C0, U+2113, U+2C60-2C7F, U+A720-A7FF; }
@font-face { font-family: __Sora_1822b0; font-style: normal; font-weight: 800; font-display: swap; src: url("https://www.element-to-svg.com/_next/static/media/f3f7e95f2dbc4fe4-s.p.woff2") format("woff2"); unicode-range: U+0-FF, U+131, U+152-153, U+2BB-2BC, U+2C6, U+2DA, U+2DC, U+304, U+308, U+329, U+2000-206F, U+20AC, U+2122, U+2191, U+2193, U+2212, U+2215, U+FEFF, U+FFFD; }
@font-face { font-family: __Sora_Fallback_1822b0; src: local("Arial"); ascent-override: 85.29%; descent-override: 25.5%; line-gap-override: 0%; size-adjust: 113.73%; }
</style><g data-stacking-layer="rootBackgroundAndBorders"/><g data-stacking-layer="childStackingContextsWithNegativeStackLevels"/><g data-stacking-layer="inFlowNonInlineNonPositionedDescendants"/><g data-stacking-layer="nonPositionedFloats"/><g data-stacking-layer="inFlowInlineLevelNonPositionedDescendants"/><g data-stacking-layer="childStackingContextsWithStackLevelZeroAndPositionedDescendantsWithStackLevelZero"/><g data-stacking-layer="childStackingContextsWithPositiveStackLevels"/><g data-tag="div" id="w-full1" class="w-full" data-z-index="auto" data-stacking-context="true" aria-owns="style1 div1"><g data-tag="style" id="style1" data-z-index="auto" data-stacking-context="true"/><g data-tag="div" id="div1" data-z-index="auto" data-stacking-context="true" aria-owns="looka-1j8o68f1"><g data-tag="svg" id="looka-1j8o68f1" class="looka-1j8o68f" data-z-index="auto" data-stacking-context="true" mask="url(#mask-for-looka-1j8o68f11)"><g data-stacking-layer="rootBackgroundAndBorders"/><g data-stacking-layer="childStackingContextsWithNegativeStackLevels"/><g data-stacking-layer="inFlowNonInlineNonPositionedDescendants"/><g data-stacking-layer="nonPositionedFloats"/><g data-stacking-layer="inFlowInlineLevelNonPositionedDescendants"/><g data-stacking-layer="childStackingContextsWithStackLevelZeroAndPositionedDescendantsWithStackLevelZero"/><g data-stacking-layer="childStackingContextsWithPositiveStackLevels"/><mask id="mask-for-looka-1j8o68f11"><rect width="254.3984375" height="82.4453125" x="464" y="366" fill="#ffffff"/></mask><g class="svg-content looka-1j8o68f" data-view-box="0 0 410.37931034482756 133" data-width="254.39999999999998" data-height="82.4486009579027" transform="matrix(0.61989 0 0 0.61989 464.004 366)"><defs id="looka-1j8o68f1-SvgjsDefs2406" color="rgb(0, 0, 0)" fill="rgb(0, 0, 0)" stroke="none"/><g id="looka-1j8o68f1-SvgjsG2407" featurekey="symbolContainer" transform="matrix(1, 0, 0, 1, 0, 0)" fill="rgb(255, 205, 60)" color="rgb(0, 0, 0)" stroke="none"><rect xmlns="http://www.w3.org/2000/svg" width="149" height="133" rx="10" ry="10" color="rgb(0, 0, 0)" fill="rgb(255, 205, 60)" stroke="none"/></g><g id="looka-1j8o68f1-SvgjsG2408" featurekey="uHI19F-0" transform="matrix(7.76098, 0, 0, 7.76098, 19.9757, 20.0025)" fill="rgb(255, 255, 255)" color="rgb(0, 0, 0)" stroke="none"><path xmlns="http://www.w3.org/2000/svg" d="M11.941,0.33c-1.783-0.825-4.115-0.049-4.94,1.73c-0.825-1.779-3.157-2.556-4.94-1.73C0.162,1.211-0.746,3.461,0.754,6.115  c1.065,1.889,2.953,3.312,6.247,5.863c3.294-2.551,5.182-3.975,6.247-5.863C14.748,3.461,13.84,1.211,11.941,0.33z" color="rgb(0, 0, 0)" fill="rgb(255, 255, 255)" stroke="none"/></g><g id="looka-1j8o68f1-SvgjsG2409" featurekey="8FbbNb-0" transform="matrix(3.08275, 0, 0, 3.08275, 166.226, 20.9562)" fill="rgb(17, 17, 17)" color="rgb(0, 0, 0)" stroke="none"><path d="M5.72 10.28 c0.68 0 1.3133 0.13998 1.9 0.41998 s1.0533 0.67334 1.4 1.18 l0.04 0 l0 -1.36 l1.8 0 l0 9.48 c-0.01334 1.4 -0.49334 2.5466 -1.44 3.44 s-2.1934 1.3467 -3.74 1.36 c-1.96 0 -3.5066 -0.56666 -4.64 -1.7 l1.22 -1.52 c0.94666 1.0267 2.08 1.54 3.4 1.54 c1.1333 0 1.9833 -0.29 2.55 -0.87 s0.85 -1.37 0.85 -2.37 l0 -1.44 l-0.06 0 c-0.32 0.56 -0.78334 0.98 -1.39 1.26 s-1.2367 0.42 -1.89 0.42 c-1.3867 0 -2.5334 -0.46334 -3.44 -1.39 s-1.3667 -2.07 -1.38 -3.43 c0.01334 -1.52 0.47 -2.7334 1.37 -3.64 s2.05 -1.3667 3.45 -1.38 z M2.82 15.26 c0 0.94666 0.27662 1.7067 0.82996 2.28 s1.3167 0.87334 2.29 0.9 c0.96 0 1.7167 -0.28666 2.27 -0.86 s0.83668 -1.3467 0.85002 -2.32 c0 -0.98666 -0.28334 -1.78 -0.85 -2.38 s-1.33 -0.90666 -2.29 -0.92 c-0.94666 0 -1.7 0.31334 -2.26 0.94 s-0.84 1.4133 -0.84 2.36 z M15.52 4.880000000000001 l0 15.12 l-1.8 0 l0 -15.12 l1.8 0 z M20.18 10.52 l0 5.68 c0 0.74666 0.19666 1.3267 0.59 1.74 s0.91668 0.62 1.57 0.62 c0.84 0 1.49 -0.27666 1.95 -0.83 s0.69 -1.3033 0.69 -2.25 l0 -4.96 l1.8 0 l0 9.48 l-1.8 0 l0 -1.46 l-0.04 0 c-0.25334 0.53334 -0.66668 0.95 -1.24 1.25 s-1.2 0.45 -1.88 0.45 c-1.0533 0 -1.89 -0.32666 -2.51 -0.98 s-0.93 -1.5067 -0.93 -2.56 l0 -6.18 l1.8 0 z M34 10.3 c1.5067 0 2.72 0.5 3.64 1.5 l-1.36 1.24 c-0.65334 -0.70666 -1.44 -1.06 -2.36 -1.06 c-0.88 0 -1.5933 0.31334 -2.14 0.94 s-0.82 1.4333 -0.82 2.42 c0 0.93334 0.28666 1.7 0.86 2.3 s1.3067 0.90666 2.2 0.92 c0.94666 0 1.7133 -0.35334 2.3 -1.06 l1.28 1.28 c-0.85334 0.97334 -2.0534 1.46 -3.6 1.46 c-1.4533 0 -2.6366 -0.45334 -3.55 -1.36 s-1.3833 -2.1 -1.41 -3.58 c0.01334 -1.5067 0.48334 -2.7134 1.41 -3.62 s2.11 -1.3667 3.55 -1.38 z M42.94 10.28 c1.2 0 2.15 0.27328 2.85 0.81994 s1.07 1.3067 1.11 2.28 l0 5.08 c0 0.48 0.02666 0.99334 0.08 1.54 l-1.6 0 c-0.04 -0.42666 -0.06 -0.90666 -0.06 -1.44 l-0.04 0 c-0.41334 0.61334 -0.89 1.0467 -1.43 1.3 s-1.17 0.38 -1.89 0.38 c-0.97334 0 -1.7633 -0.26 -2.37 -0.78 s-0.91 -1.2067 -0.91 -2.06 c0 -1.08 0.45334 -1.8967 1.36 -2.45 s2.1866 -0.83 3.84 -0.83 l1.34 0 l0 -0.34 c0 -0.64 -0.21 -1.1433 -0.63 -1.51 s-0.97 -0.55 -1.65 -0.55 c-0.50666 0 -0.95 0.07666 -1.33 0.23 s-0.83 0.43668 -1.35 0.85002 l-1.08 -1.12 c1.0267 -0.90666 2.28 -1.3733 3.76 -1.4 z M40.480000000000004 17.259999999999998 c0 1.0267 0.68002 1.54 2.04 1.54 c0.81334 0 1.4633 -0.24334 1.95 -0.73 s0.73666 -1.19 0.75 -2.11 l0 -0.52 l-1.02 0 c-1.1733 0 -2.0866 0.15 -2.74 0.45 s-0.98 0.75666 -0.98 1.37 z M54.28 10.28 c1.3733 0 2.36 0.58666 2.96 1.76 c0.30666 -0.56 0.72666 -0.99334 1.26 -1.3 s1.1133 -0.46 1.74 -0.46 c2.3866 0 3.5866 1.3733 3.6 4.12 l0 5.6 l-1.8 0 l0 -5.38 c0 -0.93334 -0.16666 -1.61 -0.5 -2.03 s-0.84668 -0.63 -1.54 -0.63 c-0.81334 0 -1.42 0.24666 -1.82 0.74 s-0.6 1.1733 -0.6 2.04 l0 5.26 l-1.8 0 l0 -5.1 c0 -1.12 -0.16 -1.89 -0.48 -2.31 s-0.82666 -0.63 -1.52 -0.63 c-0.74666 0 -1.3433 0.28666 -1.79 0.86 s-0.67 1.3 -0.67 2.18 l0 5 l-1.8 0 l0 -9.48 l1.68 0 l0 1.48 l0.04 0 c0.2 -0.46666 0.59666 -0.87 1.19 -1.21 s1.21 -0.51 1.85 -0.51 z M67.60000000000001 5.800000000000001 c0.36 0 0.67002 0.13002 0.93002 0.39002 s0.39 0.57 0.39 0.93 c0 0.37334 -0.13334 0.68668 -0.4 0.94002 s-0.57332 0.38 -0.91998 0.38 c-0.37334 0 -0.68668 -0.12666 -0.94002 -0.38 s-0.38 -0.56668 -0.38 -0.94002 s0.13334 -0.68668 0.4 -0.94002 s0.57332 -0.38 0.91998 -0.38 z M68.5 10.52 l0 9.48 l-1.8 0 l0 -9.48 l1.8 0 z M75.16 10.28 c1.2 0 2.15 0.27328 2.85 0.81994 s1.07 1.3067 1.11 2.28 l0 5.08 c0 0.48 0.02666 0.99334 0.08 1.54 l-1.6 0 c-0.04 -0.42666 -0.06 -0.90666 -0.06 -1.44 l-0.04 0 c-0.41334 0.61334 -0.89 1.0467 -1.43 1.3 s-1.17 0.38 -1.89 0.38 c-0.97334 0 -1.7633 -0.26 -2.37 -0.78 s-0.91 -1.2067 -0.91 -2.06 c0 -1.08 0.45334 -1.8967 1.36 -2.45 s2.1866 -0.83 3.84 -0.83 l1.34 0 l0 -0.34 c0 -0.64 -0.21 -1.1433 -0.63 -1.51 s-0.97 -0.55 -1.65 -0.55 c-0.50666 0 -0.95 0.07666 -1.33 0.23 s-0.83 0.43668 -1.35 0.85002 l-1.08 -1.12 c1.0267 -0.90666 2.28 -1.3733 3.76 -1.4 z M72.7 17.259999999999998 c0 1.0267 0.68002 1.54 2.04 1.54 c0.81334 0 1.4633 -0.24334 1.95 -0.73 s0.73666 -1.19 0.75 -2.11 l0 -0.52 l-1.02 0 c-1.1733 0 -2.0866 0.15 -2.74 0.45 s-0.98 0.75666 -0.98 1.37 z" color="rgb(0, 0, 0)" fill="rgb(17, 17, 17)" stroke="none"/></g></g></g></g></g></svg>